<?xml version="1.0" encoding="UTF-8" standalone="no"?>
<svg
   xmlns:dc="http://purl.org/dc/elements/1.1/"
   xmlns:cc="http://creativecommons.org/ns#"
   xmlns:rdf="http://www.w3.org/1999/02/22-rdf-syntax-ns#"
   xmlns:svg="http://www.w3.org/2000/svg"
   xmlns="http://www.w3.org/2000/svg"
   xmlns:xlink="http://www.w3.org/1999/xlink"
   xmlns:sodipodi="http://sodipodi.sourceforge.net/DTD/sodipodi-0.dtd"
   xmlns:inkscape="http://www.inkscape.org/namespaces/inkscape"
   height="128px"
   viewBox="0 0 128 128"
   width="128px"
   version="1.1"
   id="svg105"
   sodipodi:docname="logo.svg"
   inkscape:version="1.0.2 (e86c870879, 2021-01-15)">
  <metadata
     id="metadata111">
    <rdf:RDF>
      <cc:Work
         rdf:about="">
        <dc:format>image/svg+xml</dc:format>
        <dc:type
           rdf:resource="http://purl.org/dc/dcmitype/StillImage" />
        <dc:title />
      </cc:Work>
    </rdf:RDF>
  </metadata>
  <defs
     id="defs109">
    <filter
       style="color-interpolation-filters:sRGB;"
       inkscape:label="Drop Shadow"
       id="filter1033">
      <feFlood
         flood-opacity="0.301961"
         flood-color="rgb(0,0,0)"
         result="flood"
         id="feFlood1023" />
      <feComposite
         in="flood"
         in2="SourceGraphic"
         operator="in"
         result="composite1"
         id="feComposite1025" />
      <feGaussianBlur
         in="composite1"
         stdDeviation="3"
         result="blur"
         id="feGaussianBlur1027" />
      <feOffset
         dx="0"
         dy="0"
         result="offset"
         id="feOffset1029" />
      <feComposite
         in="SourceGraphic"
         in2="offset"
         operator="over"
         result="composite2"
         id="feComposite1031" />
    </filter>
    <filter
       style="color-interpolation-filters:sRGB;"
       inkscape:label="Drop Shadow"
       id="filter927">
      <feFlood
         flood-opacity="0.596078"
         flood-color="rgb(0,0,0)"
         result="flood"
         id="feFlood917" />
      <feComposite
         in="flood"
         in2="SourceGraphic"
         operator="in"
         result="composite1"
         id="feComposite919" />
      <feGaussianBlur
         in="composite1"
         stdDeviation="2"
         result="blur"
         id="feGaussianBlur921" />
      <feOffset
         dx="0"
         dy="0"
         result="offset"
         id="feOffset923" />
      <feComposite
         in="SourceGraphic"
         in2="offset"
         operator="over"
         result="composite2"
         id="feComposite925" />
    </filter>
  </defs>
  <sodipodi:namedview
     pagecolor="#ffffff"
     bordercolor="#666666"
     borderopacity="1"
     objecttolerance="10"
     gridtolerance="10"
     guidetolerance="10"
     inkscape:pageopacity="0"
     inkscape:pageshadow="2"
     inkscape:window-width="1920"
     inkscape:window-height="1011"
     id="namedview107"
     showgrid="false"
     inkscape:zoom="3.3242188"
     inkscape:cx="32.236458"
     inkscape:cy="88.110125"
     inkscape:window-x="0"
     inkscape:window-y="32"
     inkscape:window-maximized="1"
     inkscape:current-layer="svg105"
     inkscape:document-rotation="0" />
  <linearGradient
     id="a"
     gradientUnits="userSpaceOnUse"
     x1="8.0000015"
     x2="120.0000015"
     y1="115.999977"
     y2="115.999977">
    <stop
       offset="0"
       stop-color="#deddda"
       id="stop2" />
    <stop
       offset="0.0357143"
       stop-color="#f6f5f4"
       id="stop4" />
    <stop
       offset="0.0713653"
       stop-color="#deddda"
       id="stop6" />
    <stop
       offset="0.928571"
       stop-color="#deddda"
       id="stop8" />
    <stop
       offset="0.964286"
       stop-color="#f6f5f4"
       id="stop10" />
    <stop
       offset="1"
       stop-color="#deddda"
       id="stop12" />
  </linearGradient>
  <linearGradient
     id="b"
     gradientUnits="userSpaceOnUse">
    <stop
       offset="0"
       stop-color="#4bbfe5"
       id="stop15" />
    <stop
       offset="1"
       stop-color="#9141ac"
       id="stop17" />
  </linearGradient>
  <radialGradient
     id="c"
     cx="29.491123"
     cy="109.784927"
     gradientTransform="matrix(1.953487,0.295654,-0.131445,0.868505,-21.957144,-27.30719)"
     r="56"
     xlink:href="#b" />
  <radialGradient
     id="d"
     cx="104.212189"
     cy="83.412865"
     gradientTransform="matrix(0.0162272,-1.154436,1.225278,0.017223,20.822149,147.83411)"
     gradientUnits="userSpaceOnUse"
     r="56">
    <stop
       offset="0"
       stop-color="#f66151"
       id="stop21" />
    <stop
       offset="1"
       stop-color="#ed333b"
       stop-opacity="0"
       id="stop23" />
  </radialGradient>
  <filter
     id="e"
     height="100%"
     width="100%"
     x="0%"
     y="0%">
    <feColorMatrix
       in="SourceGraphic"
       type="matrix"
       values="0 0 0 0 1 0 0 0 0 1 0 0 0 0 1 0 0 0 1 0"
       id="feColorMatrix26" />
  </filter>
  <mask
     id="f">
    <g
       filter="url(#e)"
       id="g31">
      <rect
         fill-opacity="0.1"
         height="128"
         width="128"
         id="rect29" />
    </g>
  </mask>
  <clipPath
     id="g">
    <rect
       height="152"
       width="192"
       id="rect34" />
  </clipPath>
  <mask
     id="h">
    <g
       filter="url(#e)"
       id="g39">
      <rect
         fill-opacity="0.154"
         height="128"
         width="128"
         id="rect37" />
    </g>
  </mask>
  <clipPath
     id="i">
    <rect
       height="152"
       width="192"
       id="rect42" />
  </clipPath>
  <radialGradient
     id="j"
     cx="31.13185598259"
     cy="85.99992432621"
     r="76.06456014758"
     xlink:href="#b" />
  <radialGradient
     id="k"
     cx="109.98847032157"
     cy="3.56956334146"
     gradientUnits="userSpaceOnUse"
     r="66.01153158062">
    <stop
       offset="0"
       stop-color="#f66151"
       id="stop46" />
    <stop
       offset="1"
       stop-color="#ed333b"
       stop-opacity="0.000613"
       id="stop48" />
  </radialGradient>
  <mask
     id="l">
    <g
       filter="url(#e)"
       id="g53">
      <rect
         fill-opacity="0.154"
         height="128"
         width="128"
         id="rect51" />
    </g>
  </mask>
  <clipPath
     id="m">
    <rect
       height="152"
       width="192"
       id="rect56" />
  </clipPath>
  <g
     id="g959"
     transform="matrix(0.94395276,0,0,0.94395276,3.1150443,1.8097393)"
     style="filter:url(#filter927)">
    <path
       d="m 16,40 h 96 c 4.41797,0 8,3.582031 8,8 v 60 c 0,4.41797 -3.58203,8 -8,8 H 16 c -4.417969,0 -8,-3.58203 -8,-8 V 48 c 0,-4.417969 3.582031,-8 8,-8 z m 0,0"
       fill="url(#a)"
       id="path59"
       style="fill:url(#a);" />
    <path
       d="m 16,54 h 96 c 4.41797,0 8,2.472656 8,5.523438 V 106.47656 C 120,109.52734 116.41797,112 112,112 H 16 c -4.417969,0 -8,-2.47266 -8,-5.52344 V 59.523438 C 8,56.472656 11.582031,54 16,54 Z m 0,0"
       fill="#f6f5f4"
       id="path61" />
    <path
       d="m 16,28 c -4.433594,0 -8,3.566406 -8,8 V 86 H 120 V 36 c 0,-4.433594 -3.56641,-8 -8,-8 z m 0,0"
       fill="url(#c)"
       id="path63"
       style="fill:url(#c);" />
    <path
       d="m 16,28 c -4.433594,0 -8,3.566406 -8,8 V 88 H 120 V 36 c 0,-4.433594 -3.56641,-8 -8,-8 z m 0,0"
       fill="url(#d)"
       id="path65"
       style="fill:url(#d);" />
    <path
       d="m 14,104 h 52 v -4 H 14 Z m 0,0"
       fill="#c0bfbc"
       id="path67" />
    <path
       d="M 14,96 H 94 V 92 H 14 Z m 0,0"
       fill="#c0bfbc"
       id="path69" />
    <g
       clip-path="url(#g)"
       fill="none"
       mask="url(#f)"
       stroke="#00000f"
       transform="translate(-8,-16)"
       id="g77">
      <path
         d="m 35.999998,250.00045 -8,8"
         stroke-width="6"
         transform="matrix(-1,0,0,1,140,-162.11763)"
         id="path71" />
      <path
         d="m 27.999998,258.00045 -14,14"
         stroke-linecap="round"
         stroke-width="12"
         transform="matrix(-1,0,0,1,140,-162.11763)"
         id="path73" />
      <path
         d="m 88.117186,228.00045 c 0,16.63281 -13.484375,30.11718 -30.117188,30.11718 -16.632812,0 -30.117187,-13.48437 -30.117187,-30.11718 0,-16.63282 13.484375,-30.11719 30.117187,-30.11719 16.632813,0 30.117188,13.48437 30.117188,30.11719 z m 0,0"
         stroke-linejoin="round"
         stroke-width="3.76471"
         transform="matrix(-1,0,0,1,140,-162.11763)"
         id="path75" />
    </g>
    <g
       clip-path="url(#i)"
       mask="url(#h)"
       transform="translate(-8,-16)"
       id="g81">
      <path
         d="M 11.890623,268.55123 27.347654,253.0942"
         fill="none"
         stroke="#ffffff"
         stroke-linecap="round"
         stroke-width="1.63784"
         transform="matrix(-1,0,0,1,140,-164.11763)"
         id="path79" />
    </g>
    <g
       fill="none"
       transform="matrix(-1,0,0,1,132,-180.11763)"
       id="g91">
      <path
         d="m 35.999998,250.00045 -8,8"
         stroke="#949390"
         stroke-width="6"
         id="path83" />
      <path
         d="m 35.999998,248.00045 -8,8"
         stroke="#d5d3cf"
         stroke-width="6"
         id="path85" />
      <path
         d="m 27.999998,258.00045 -14,14"
         stroke="#241f31"
         stroke-linecap="round"
         stroke-width="12"
         id="path87" />
      <path
         d="m 27.999998,256.00045 -14,14"
         stroke="#424048"
         stroke-linecap="round"
         stroke-width="12"
         id="path89" />
    </g>
    <path
       d="m 103.9375,45.945312 c 0,16.535157 -13.402344,29.9375 -29.9375,29.9375 -16.535156,0 -29.9375,-13.402343 -29.9375,-29.9375 0,-16.535156 13.402344,-29.9375 29.9375,-29.9375 16.535156,0 29.9375,13.402344 29.9375,29.9375 z m 0,0"
       fill="url(#j)"
       id="path93"
       style="fill:url(#j);" />
    <path
       d="m 103.9375,45.945312 c 0,16.535157 -13.402344,29.9375 -29.9375,29.9375 -16.535156,0 -29.9375,-13.402343 -29.9375,-29.9375 0,-16.535156 13.402344,-29.9375 29.9375,-29.9375 16.535156,0 29.9375,13.402344 29.9375,29.9375 z m 0,0"
       fill="url(#k)"
       id="path95"
       style="fill:url(#k);" />
    <path
       d="m 102.11719,214.00046 c 0,16.63281 -13.48437,30.11719 -30.117182,30.11719 -16.632813,0 -30.117188,-13.48438 -30.117188,-30.11719 0,-16.63281 13.484375,-30.11719 30.117188,-30.11719 16.632812,0 30.117182,13.48438 30.117182,30.11719 z m 0,0"
       fill="none"
       stroke="#9a9996"
       stroke-linejoin="round"
       stroke-width="3.76471"
       transform="matrix(-1,0,0,1,146.00001,-166.11765)"
       id="path97" />
    <path
       d="m 102.11719,212.00046 c 0,16.63281 -13.48437,30.11719 -30.117182,30.11719 -16.632813,0 -30.117188,-13.48438 -30.117188,-30.11719 0,-16.63281 13.484375,-30.11719 30.117188,-30.11719 16.632812,0 30.117182,13.48438 30.117182,30.11719 z m 0,0"
       fill="none"
       stroke="#deddda"
       stroke-linejoin="round"
       stroke-width="3.76471"
       transform="matrix(-1,0,0,1,146.00001,-166.11765)"
       id="path99" />
    <g
       clip-path="url(#m)"
       mask="url(#l)"
       transform="translate(-8,-16)"
       id="g103">
      <path
         d="m 25.000008,255.00046 16,-16"
         fill="none"
         stroke="#ffffff"
         stroke-linecap="round"
         stroke-width="2"
         transform="matrix(-1,0,0,1,154.00001,-150.11765)"
         id="path101" />
    </g>
  </g>
</svg>
