<?xml version="1.0" encoding="UTF-8"?>
<svg height="16px" viewBox="0 0 16 16" width="16px" xmlns="http://www.w3.org/2000/svg" xmlns:xlink="http://www.w3.org/1999/xlink">
    <filter id="a" height="100%" width="100%" x="0%" y="0%">
        <feColorMatrix in="SourceGraphic" type="matrix" values="0 0 0 0 1 0 0 0 0 1 0 0 0 0 1 0 0 0 1 0"/>
    </filter>
    <mask id="b">
        <g filter="url(#a)">
            <rect fill-opacity="0.1" height="16" width="16"/>
        </g>
    </mask>
    <clipPath id="c">
        <rect height="152" width="192"/>
    </clipPath>
    <mask id="d">
        <g filter="url(#a)">
            <rect fill-opacity="0.154" height="16" width="16"/>
        </g>
    </mask>
    <clipPath id="e">
        <rect height="152" width="192"/>
    </clipPath>
    <mask id="f">
        <g filter="url(#a)">
            <rect fill-opacity="0.154" height="16" width="16"/>
        </g>
    </mask>
    <clipPath id="g">
        <rect height="152" width="192"/>
    </clipPath>
    <g clip-path="url(#c)" fill="none" mask="url(#b)" stroke="#00000f" transform="matrix(1 0 0 1 -168 -16)">
        <path d="m 35.999998 250.000446 l -8 8" stroke-width="6" transform="matrix(-1 0 0 1 139.999998 -162.117634)"/>
        <path d="m 27.999998 258.000446 l -14 14" stroke-linecap="round" stroke-width="12" transform="matrix(-1 0 0 1 139.999998 -162.117634)"/>
        <path d="m 88.117186 228.000446 c 0 16.632813 -13.484375 30.117188 -30.117188 30.117188 c -16.632812 0 -30.117187 -13.484375 -30.117187 -30.117188 c 0 -16.632812 13.484375 -30.117187 30.117187 -30.117187 c 16.632813 0 30.117188 13.484375 30.117188 30.117187 z m 0 0" stroke-linejoin="round" stroke-width="3.76471" transform="matrix(-1 0 0 1 139.999998 -162.117634)"/>
    </g>
    <g clip-path="url(#e)" mask="url(#d)" transform="matrix(1 0 0 1 -168 -16)">
        <path d="m 11.890623 268.551228 l 15.457031 -15.457032" fill="none" stroke="#ffffff" stroke-linecap="round" stroke-width="1.63784" transform="matrix(-1 0 0 1 139.999998 -164.117634)"/>
    </g>
    <path d="m 27.999998 258.000446 l -14 14" fill="none" stroke="#241f31" stroke-linecap="round" stroke-width="12" transform="matrix(-1 0 0 1 -28.000002 -180.117634)"/>
    <path d="m 27.999998 256.000446 l -14 14" fill="none" stroke="#424048" stroke-linecap="round" stroke-width="12" transform="matrix(-1 0 0 1 -28.000002 -180.117634)"/>
    <g clip-path="url(#g)" mask="url(#f)" transform="matrix(1 0 0 1 -168 -16)">
        <path d="m 25.000008 255.00046 l 16 -16" fill="none" stroke="#ffffff" stroke-linecap="round" stroke-width="2" transform="matrix(-1 0 0 1 154.000008 -150.117647)"/>
    </g>
    <path d="m 2 2 c -1.089844 0 -2 0.910156 -2 2 v 8 c 0 1.089844 0.910156 2 2 2 h 12 c 1.089844 0 2 -0.910156 2 -2 v -8 c 0 -1.089844 -0.910156 -2 -2 -2 z m 0 2 h 12 v 5 h -12 z m 0 6 h 12 v 2 h -12 z m 0 0" fill="#241f31"/>
</svg>
