<?xml version="1.0" encoding="UTF-8"?>
<svg height="128px" viewBox="0 0 128 128" width="128px" xmlns="http://www.w3.org/2000/svg" xmlns:xlink="http://www.w3.org/1999/xlink">
    <defs>
        <linearGradient id="a" gradientUnits="userSpaceOnUse" x1="8.0000015" x2="120.0000015" y1="115.999977" y2="115.999977">
            <stop offset="0" stop-color="#deddda"/>
            <stop offset="0.0357143" stop-color="#f6f5f4"/>
            <stop offset="0.0713653" stop-color="#deddda"/>
            <stop offset="0.928571" stop-color="#deddda"/>
            <stop offset="0.964286" stop-color="#f6f5f4"/>
            <stop offset="1" stop-color="#deddda"/>
        </linearGradient>
        <linearGradient id="b" gradientUnits="userSpaceOnUse">
            <stop offset="0" stop-color="#4bbfe5"/>
            <stop offset="1" stop-color="#9141ac"/>
        </linearGradient>
        <radialGradient id="c" cx="29.491123" cy="109.784927" gradientTransform="matrix(1.953487 0.295654 -0.131445 0.868505 -21.957144 -27.30719)" r="56" xlink:href="#b"/>
        <radialGradient id="d" cx="104.212189" cy="83.412865" gradientTransform="matrix(0.0162272 -1.154436 1.225278 0.017223 20.822149 147.834106)" gradientUnits="userSpaceOnUse" r="56">
            <stop offset="0" stop-color="#f66151"/>
            <stop offset="1" stop-color="#ed333b" stop-opacity="0"/>
        </radialGradient>
        <filter id="e" height="100%" width="100%" x="0%" y="0%">
            <feColorMatrix in="SourceGraphic" type="matrix" values="0 0 0 0 1 0 0 0 0 1 0 0 0 0 1 0 0 0 1 0"/>
        </filter>
        <mask id="f">
            <g filter="url(#e)">
                <rect fill-opacity="0.1" height="128" width="128"/>
            </g>
        </mask>
        <mask id="g">
            <g filter="url(#e)">
                <rect fill-opacity="0.154" height="128" width="128"/>
            </g>
        </mask>
        <radialGradient id="h" cx="31.13185598259" cy="85.99992432621" r="76.06456014758" xlink:href="#b"/>
        <radialGradient id="i" cx="109.98847032157" cy="3.56956334146" gradientUnits="userSpaceOnUse" r="66.01153158062">
            <stop offset="0" stop-color="#f66151"/>
            <stop offset="1" stop-color="#ed333b" stop-opacity="0.000613"/>
        </radialGradient>
        <mask id="j">
            <g filter="url(#e)">
                <rect fill-opacity="0.154" height="128" width="128"/>
            </g>
        </mask>
        <mask id="k">
            <g filter="url(#e)">
                <rect fill-opacity="0.1" height="128" width="128"/>
            </g>
        </mask>
        <clipPath id="l">
            <rect height="152" width="192"/>
        </clipPath>
        <g id="m" clip-path="url(#l)">
            <path d="m 35.999998 250.000446 l -8 8" fill="none" stroke="#00000f" stroke-width="6" transform="matrix(-1 0 0 1 139.999998 -162.117634)"/>
            <path d="m 27.999998 258.000446 l -14 14" fill="none" stroke="#00000f" stroke-linecap="round" stroke-width="12" transform="matrix(-1 0 0 1 139.999998 -162.117634)"/>
            <path d="m 88.117186 228.000446 c 0 16.632813 -13.484375 30.117188 -30.117188 30.117188 c -16.632812 0 -30.117187 -13.484375 -30.117187 -30.117188 c 0 -16.632812 13.484375 -30.117187 30.117187 -30.117187 c 16.632813 0 30.117188 13.484375 30.117188 30.117187 z m 0 0" fill="none" stroke="#00000f" stroke-linejoin="round" stroke-width="3.76471" transform="matrix(-1 0 0 1 139.999998 -162.117634)"/>
        </g>
        <mask id="n">
            <g filter="url(#e)">
                <rect fill-opacity="0.154" height="128" width="128"/>
            </g>
        </mask>
        <clipPath id="o">
            <rect height="152" width="192"/>
        </clipPath>
        <g id="p" clip-path="url(#o)">
            <path d="m 11.890623 268.551228 l 15.457031 -15.457032" fill="none" stroke="#ffffff" stroke-linecap="round" stroke-width="1.63784" transform="matrix(-1 0 0 1 139.999998 -164.117634)"/>
        </g>
        <mask id="q">
            <g filter="url(#e)">
                <rect fill-opacity="0.154" height="128" width="128"/>
            </g>
        </mask>
        <clipPath id="r">
            <rect height="152" width="192"/>
        </clipPath>
        <g id="s" clip-path="url(#r)">
            <path d="m 25.000008 255.00046 l 16 -16" fill="none" stroke="#ffffff" stroke-linecap="round" stroke-width="2" transform="matrix(-1 0 0 1 154.000008 -150.117647)"/>
        </g>
        <clipPath id="t">
            <rect height="128" width="128"/>
        </clipPath>
        <clipPath id="u">
            <rect height="128" width="128"/>
        </clipPath>
        <mask id="v">
            <g clip-path="url(#u)" filter="url(#e)">
                <g clip-path="url(#t)">
                    <path d="m 16 40 h 96 c 4.417969 0 8 3.582031 8 8 v 60 c 0 4.417969 -3.582031 8 -8 8 h -96 c -4.417969 0 -8 -3.582031 -8 -8 v -60 c 0 -4.417969 3.582031 -8 8 -8 z m 0 0" fill="url(#a)"/>
                    <path d="m 16 54 h 96 c 4.417969 0 8 2.472656 8 5.523438 v 46.953124 c 0 3.050782 -3.582031 5.523438 -8 5.523438 h -96 c -4.417969 0 -8 -2.472656 -8 -5.523438 v -46.953124 c 0 -3.050782 3.582031 -5.523438 8 -5.523438 z m 0 0" fill="#f6f5f4"/>
                    <path d="m 16 28 c -4.433594 0 -8 3.566406 -8 8 v 50 h 112 v -50 c 0 -4.433594 -3.566406 -8 -8 -8 z m 0 0" fill="url(#c)"/>
                    <path d="m 16 28 c -4.433594 0 -8 3.566406 -8 8 v 52 h 112 v -52 c 0 -4.433594 -3.566406 -8 -8 -8 z m 0 0" fill="url(#d)"/>
                    <path d="m 14 104 h 52 v -4 h -52 z m 0 0" fill="#c0bfbc"/>
                    <path d="m 14 96 h 80 v -4 h -80 z m 0 0" fill="#c0bfbc"/>
                    <use mask="url(#k)" transform="matrix(1 0 0 1 -8 -16)" xlink:href="#m"/>
                    <use mask="url(#n)" transform="matrix(1 0 0 1 -8 -16)" xlink:href="#p"/>
                    <path d="m 35.999998 250.000446 l -8 8" fill="none" stroke="#949390" stroke-width="6" transform="matrix(-1 0 0 1 131.999998 -180.117634)"/>
                    <path d="m 35.999998 248.000446 l -8 8" fill="none" stroke="#d5d3cf" stroke-width="6" transform="matrix(-1 0 0 1 131.999998 -180.117634)"/>
                    <path d="m 27.999998 258.000446 l -14 14" fill="none" stroke="#241f31" stroke-linecap="round" stroke-width="12" transform="matrix(-1 0 0 1 131.999998 -180.117634)"/>
                    <path d="m 27.999998 256.000446 l -14 14" fill="none" stroke="#424048" stroke-linecap="round" stroke-width="12" transform="matrix(-1 0 0 1 131.999998 -180.117634)"/>
                    <path d="m 103.9375 45.945312 c 0 16.535157 -13.402344 29.9375 -29.9375 29.9375 s -29.9375 -13.402343 -29.9375 -29.9375 c 0 -16.535156 13.402344 -29.9375 29.9375 -29.9375 s 29.9375 13.402344 29.9375 29.9375 z m 0 0" fill="url(#h)"/>
                    <path d="m 103.9375 45.945312 c 0 16.535157 -13.402344 29.9375 -29.9375 29.9375 s -29.9375 -13.402343 -29.9375 -29.9375 c 0 -16.535156 13.402344 -29.9375 29.9375 -29.9375 s 29.9375 13.402344 29.9375 29.9375 z m 0 0" fill="url(#i)"/>
                    <path d="m 102.117195 214.00046 c 0 16.632812 -13.484375 30.117187 -30.117187 30.117187 c -16.632813 0 -30.117188 -13.484375 -30.117188 -30.117187 c 0 -16.632813 13.484375 -30.117188 30.117188 -30.117188 c 16.632812 0 30.117187 13.484375 30.117187 30.117188 z m 0 0" fill="none" stroke="#9a9996" stroke-linejoin="round" stroke-width="3.76471" transform="matrix(-1 0 0 1 146.000008 -166.117647)"/>
                    <path d="m 102.117195 212.00046 c 0 16.632812 -13.484375 30.117187 -30.117187 30.117187 c -16.632813 0 -30.117188 -13.484375 -30.117188 -30.117187 c 0 -16.632813 13.484375 -30.117188 30.117188 -30.117188 c 16.632812 0 30.117187 13.484375 30.117187 30.117188 z m 0 0" fill="none" stroke="#deddda" stroke-linejoin="round" stroke-width="3.76471" transform="matrix(-1 0 0 1 146.000008 -166.117647)"/>
                    <use mask="url(#q)" transform="matrix(1 0 0 1 -8 -16)" xlink:href="#s"/>
                </g>
            </g>
        </mask>
        <mask id="w">
            <g filter="url(#e)">
                <rect fill-opacity="0.8" height="128" width="128"/>
            </g>
        </mask>
        <linearGradient id="x" gradientTransform="matrix(0 0.37 -0.98462 0 295.38501 -30.360001)" gradientUnits="userSpaceOnUse" x1="300" x2="428" y1="235" y2="235">
            <stop offset="0" stop-color="#f9f06b"/>
            <stop offset="1" stop-color="#f5c211"/>
        </linearGradient>
        <clipPath id="y">
            <rect height="128" width="128"/>
        </clipPath>
        <clipPath id="z">
            <rect height="128" width="128"/>
        </clipPath>
    </defs>
    <path d="m 16 40 h 96 c 4.417969 0 8 3.582031 8 8 v 60 c 0 4.417969 -3.582031 8 -8 8 h -96 c -4.417969 0 -8 -3.582031 -8 -8 v -60 c 0 -4.417969 3.582031 -8 8 -8 z m 0 0" fill="url(#a)"/>
    <path d="m 16 54 h 96 c 4.417969 0 8 2.472656 8 5.523438 v 46.953124 c 0 3.050782 -3.582031 5.523438 -8 5.523438 h -96 c -4.417969 0 -8 -2.472656 -8 -5.523438 v -46.953124 c 0 -3.050782 3.582031 -5.523438 8 -5.523438 z m 0 0" fill="#f6f5f4"/>
    <path d="m 16 28 c -4.433594 0 -8 3.566406 -8 8 v 50 h 112 v -50 c 0 -4.433594 -3.566406 -8 -8 -8 z m 0 0" fill="url(#c)"/>
    <path d="m 16 28 c -4.433594 0 -8 3.566406 -8 8 v 52 h 112 v -52 c 0 -4.433594 -3.566406 -8 -8 -8 z m 0 0" fill="url(#d)"/>
    <path d="m 14 104 h 52 v -4 h -52 z m 0 0" fill="#c0bfbc"/>
    <path d="m 14 96 h 80 v -4 h -80 z m 0 0" fill="#c0bfbc"/>
    <use mask="url(#f)" transform="matrix(1 0 0 1 -8 -16)" xlink:href="#m"/>
    <use mask="url(#g)" transform="matrix(1 0 0 1 -8 -16)" xlink:href="#p"/>
    <g fill="none" transform="matrix(-1 0 0 1 131.999998 -180.117634)">
        <path d="m 35.999998 250.000446 l -8 8" stroke="#949390" stroke-width="6"/>
        <path d="m 35.999998 248.000446 l -8 8" stroke="#d5d3cf" stroke-width="6"/>
        <path d="m 27.999998 258.000446 l -14 14" stroke="#241f31" stroke-linecap="round" stroke-width="12"/>
        <path d="m 27.999998 256.000446 l -14 14" stroke="#424048" stroke-linecap="round" stroke-width="12"/>
    </g>
    <path d="m 103.9375 45.945312 c 0 16.535157 -13.402344 29.9375 -29.9375 29.9375 s -29.9375 -13.402343 -29.9375 -29.9375 c 0 -16.535156 13.402344 -29.9375 29.9375 -29.9375 s 29.9375 13.402344 29.9375 29.9375 z m 0 0" fill="url(#h)"/>
    <path d="m 103.9375 45.945312 c 0 16.535157 -13.402344 29.9375 -29.9375 29.9375 s -29.9375 -13.402343 -29.9375 -29.9375 c 0 -16.535156 13.402344 -29.9375 29.9375 -29.9375 s 29.9375 13.402344 29.9375 29.9375 z m 0 0" fill="url(#i)"/>
    <path d="m 102.117195 214.00046 c 0 16.632812 -13.484375 30.117187 -30.117187 30.117187 c -16.632813 0 -30.117188 -13.484375 -30.117188 -30.117187 c 0 -16.632813 13.484375 -30.117188 30.117188 -30.117188 c 16.632812 0 30.117187 13.484375 30.117187 30.117188 z m 0 0" fill="none" stroke="#9a9996" stroke-linejoin="round" stroke-width="3.76471" transform="matrix(-1 0 0 1 146.000008 -166.117647)"/>
    <path d="m 102.117195 212.00046 c 0 16.632812 -13.484375 30.117187 -30.117187 30.117187 c -16.632813 0 -30.117188 -13.484375 -30.117188 -30.117187 c 0 -16.632813 13.484375 -30.117188 30.117188 -30.117188 c 16.632812 0 30.117187 13.484375 30.117187 30.117188 z m 0 0" fill="none" stroke="#deddda" stroke-linejoin="round" stroke-width="3.76471" transform="matrix(-1 0 0 1 146.000008 -166.117647)"/>
    <use mask="url(#j)" transform="matrix(1 0 0 1 -8 -16)" xlink:href="#s"/>
    <g clip-path="url(#z)" mask="url(#v)">
        <g clip-path="url(#y)" mask="url(#w)">
            <path d="m 128 80.640625 v 47.359375 h -128 v -47.359375 z m 0 0" fill="url(#x)"/>
            <path d="m 13.308594 80.640625 l 47.355468 47.359375 h 21.214844 l -47.359375 -47.359375 z m 42.421875 0 l 47.363281 47.359375 h 21.214844 l -47.363282 -47.359375 z m 42.429687 0 l 29.839844 29.839844 v -21.210938 l -8.628906 -8.628906 z m -98.160156 7.90625 v 21.214844 l 18.238281 18.238281 h 21.214844 z m 0 0"/>
        </g>
    </g>
</svg>
